<?xml version="1.0" encoding="UTF-8" standalone="no"?>
<svg
   xmlns:dc="http://purl.org/dc/elements/1.1/"
   xmlns:cc="http://creativecommons.org/ns#"
   xmlns:rdf="http://www.w3.org/1999/02/22-rdf-syntax-ns#"
   xmlns:svg="http://www.w3.org/2000/svg"
   xmlns="http://www.w3.org/2000/svg"
   xmlns:sodipodi="http://sodipodi.sourceforge.net/DTD/sodipodi-0.dtd"
   xmlns:inkscape="http://www.inkscape.org/namespaces/inkscape"
   version="1.1"
   width="167.03191pt"
   height="16.462998pt"
   viewBox="-73.13386 -73.13386 167.03191 16.462998"
   id="svg94"
   sodipodi:docname="Formel.svg"
   inkscape:version="1.0.1 (3bc2e813f5, 2020-09-07)">
  <metadata
     id="metadata98">
    <rdf:RDF>
      <cc:Work
         rdf:about="">
        <dc:format>image/svg+xml</dc:format>
        <dc:type
           rdf:resource="http://purl.org/dc/dcmitype/StillImage" />
      </cc:Work>
    </rdf:RDF>
  </metadata>
  <sodipodi:namedview
     pagecolor="#ffffff"
     bordercolor="#666666"
     borderopacity="1"
     objecttolerance="10"
     gridtolerance="10"
     guidetolerance="10"
     inkscape:pageopacity="0"
     inkscape:pageshadow="2"
     inkscape:window-width="2560"
     inkscape:window-height="1377"
     id="namedview96"
     showgrid="false"
     inkscape:zoom="4.9571367"
     inkscape:cx="111.3546"
     inkscape:cy="10.975332"
     inkscape:window-x="-8"
     inkscape:window-y="-8"
     inkscape:window-maximized="1"
     inkscape:current-layer="svg94" />
  <defs
     id="defs61">
    <font
       id="CMU Serif"
       horiz-adv-x="0">
      <font-face
         font-family="CMU Serif"
         units-per-em="1000"
         ascent="750"
         descent="251"
         id="font-face2" />
      <glyph
         unicode="+"
         horiz-adv-x="761"
         vert-adv-y="761"
         glyph-name="plus"
         d="M399 231H675C689 231 707 231 707 249C707 268 690 268 675 268H399V544C399 558 399 576 381 576C362 576 362 559 362 544V268H86C72 268 54 268 54 250C54 231 71 231 86 231H362V-45C362-59 362-77 380-77C399-77 399-60 399-45V231Z"
         id="glyph4" />
      <glyph
         unicode="="
         horiz-adv-x="761"
         vert-adv-y="761"
         glyph-name="equal"
         d="M675 324C689 324 707 324 707 342C707 361 690 361 675 361H86C72 361 54 361 54 343C54 324 71 324 86 324H675ZM675 138C689 138 707 138 707 156C707 175 690 175 675 175H86C72 175 54 175 54 157C54 138 71 138 86 138H675Z"
         id="glyph6" />
      <glyph
         unicode="a"
         horiz-adv-x="489"
         vert-adv-y="489"
         glyph-name="a"
         d="M386 267C386 321 386 361 342 400C307 432 262 446 218 446C136 446 73 392 73 327C73 298 92 284 115 284C139 284 156 301 156 325C156 366 120 366 105 366C128 408 176 426 216 426C262 426 321 388 321 298V258C120 255 44 171 44 94C44 15 136-10 197-10C263-10 308 30 327 78C331 31 362-5 405-5C426-5 484 9 484 89V145H462V89C462 32 438 24 424 24C386 24 386 77 386 92V267ZM321 141C321 43 248 10 205 10C156 10 115 46 115 94C115 226 285 238 321 240V141Z"
         id="glyph8" />
      <glyph
         unicode="c"
         horiz-adv-x="435"
         vert-adv-y="435"
         glyph-name="c"
         d="M362 370C350 370 313 370 313 329C313 305 330 288 354 288C377 288 396 302 396 331C396 398 326 446 245 446C128 446 35 342 35 216C35 88 131-10 244-10C376-10 406 110 406 119S399 128 396 128C387 128 386 125 383 113C361 42 307 12 253 12C192 12 111 65 111 217C111 383 196 424 246 424C284 424 339 409 362 370Z"
         id="glyph10" />
      <glyph
         unicode="d"
         horiz-adv-x="543"
         vert-adv-y="543"
         glyph-name="d"
         d="M300 683V654C368 654 376 647 376 598V377C355 406 312 441 251 441C135 441 35 343 35 215C35 88 130-10 240-10C316-10 360 40 374 59V-10L515 0V29C447 29 439 36 439 85V694L300 683ZM374 117C374 99 374 96 360 74C336 39 295 10 245 10C219 10 111 20 111 214C111 286 123 326 145 359C165 390 205 421 255 421C317 421 352 376 362 360C374 343 374 341 374 323V117Z"
         id="glyph12" />
      <glyph
         unicode="e"
         horiz-adv-x="435"
         vert-adv-y="435"
         glyph-name="e"
         d="M383 232C405 232 407 232 407 251C407 352 353 446 232 446C118 446 30 343 30 219C30 87 132-10 243-10C362-10 407 98 407 119C407 125 402 129 396 129C388 129 386 124 384 119C358 35 291 12 249 12S106 40 106 213V232H383ZM107 251C115 408 203 426 231 426C338 426 344 285 345 251H107Z"
         id="glyph14" />
      <glyph
         unicode="i"
         horiz-adv-x="271"
         vert-adv-y="271"
         glyph-name="i"
         d="M174 616C174 642 153 665 125 665C99 665 77 644 77 617C77 587 101 568 125 568C156 568 174 594 174 616ZM36 430V401C100 401 109 395 109 346V74C109 29 98 29 33 29V0C61 2 109 2 138 2C149 2 207 2 241 0V29C176 29 172 34 172 73V441L36 430Z"
         id="glyph16" />
      <glyph
         unicode="l"
         horiz-adv-x="271"
         vert-adv-y="271"
         glyph-name="l"
         d="M172 694L33 683V654C101 654 109 647 109 598V74C109 29 98 29 33 29V0C61 2 110 2 140 2S220 2 248 0V29C184 29 172 29 172 74V694Z"
         id="glyph18" />
      <glyph
         unicode="m"
         horiz-adv-x="815"
         vert-adv-y="815"
         glyph-name="m"
         d="M717 243C717 336 717 364 694 396C665 435 618 441 584 441C501 441 459 381 443 342C429 419 375 441 312 441C215 441 177 358 169 338H168V441L32 430V401C100 401 108 394 108 345V74C108 29 97 29 32 29V0C58 2 112 2 140 2C169 2 223 2 249 0V29C185 29 173 29 173 74V260C173 365 242 421 304 421S380 370 380 309V74C380 29 369 29 304 29V0C330 2 384 2 412 2C441 2 495 2 521 0V29C457 29 445 29 445 74V260C445 365 514 421 576 421S652 370 652 309V74C652 29 641 29 576 29V0C602 2 656 2 684 2C713 2 767 2 793 0V29C743 29 718 29 717 59V243Z"
         id="glyph20" />
      <glyph
         unicode="n"
         horiz-adv-x="543"
         vert-adv-y="543"
         glyph-name="n"
         d="M445 243C445 336 445 364 422 396C393 435 346 441 312 441C215 441 177 358 169 338H168V441L32 430V401C100 401 108 394 108 345V74C108 29 97 29 32 29V0C58 2 112 2 140 2C169 2 223 2 249 0V29C185 29 173 29 173 74V260C173 365 242 421 304 421S380 370 380 309V74C380 29 369 29 304 29V0C330 2 384 2 412 2C441 2 495 2 521 0V29C471 29 446 29 445 59V243Z"
         id="glyph22" />
      <glyph
         unicode="r"
         horiz-adv-x="380"
         vert-adv-y="380"
         glyph-name="r"
         d="M167 233C167 330 207 421 284 421C292 421 294 421 298 420C290 416 274 410 274 383C274 354 297 343 313 343C333 343 353 356 353 383C353 413 326 441 283 441C198 441 169 349 163 330H162V441L28 430V401C96 401 104 394 104 345V74C104 29 93 29 28 29V0C56 2 111 2 141 2C168 2 239 2 262 0V29H242C169 29 167 40 167 76V233Z"
         id="glyph24" />
      <glyph
         unicode="t"
         horiz-adv-x="380"
         vert-adv-y="380"
         glyph-name="t"
         d="M168 402H309V431H168V615H146C145 521 109 425 18 422V402H103V124C103 13 177-10 230-10C293-10 326 52 326 124V181H304V126C304 54 275 12 236 12C168 12 168 105 168 122V402Z"
         id="glyph26" />
      <glyph
         unicode="u"
         horiz-adv-x="543"
         vert-adv-y="543"
         glyph-name="u"
         d="M304 430V401C372 401 380 394 380 345V166C380 81 335 10 260 10C178 10 173 57 173 110V441L32 430V401C108 401 108 398 108 309V159C108 97 108 61 138 28C162 2 203-10 254-10C271-10 303-10 337 19C366 42 382 80 382 80V-10L521 0V29C453 29 445 36 445 85V441L304 430Z"
         id="glyph28" />
      <glyph
         unicode="v"
         horiz-adv-x="516"
         vert-adv-y="516"
         glyph-name="v"
         d="M408 336C417 358 434 401 498 402V431C469 429 455 429 424 429C403 429 388 429 342 431V402C384 400 389 370 389 359C389 350 387 345 382 333L280 75L168 357C163 371 162 371 162 376C162 402 200 402 218 402V431C193 429 141 429 114 429C81 429 79 429 18 431V402C74 402 84 398 96 367L239 9C244-5 246-10 258-10C265-10 271-8 278 9L408 336Z"
         id="glyph30" />
      <glyph
         unicode="x"
         horiz-adv-x="516"
         vert-adv-y="516"
         glyph-name="x"
         d="M280 236C309 274 351 328 370 349C411 395 458 402 490 402V431C447 429 445 429 406 429C368 429 366 429 316 431V402C329 400 345 394 345 371C345 354 336 343 330 335L266 254L188 357C185 361 179 370 179 377C179 383 184 401 214 402V431C189 429 138 429 111 429C78 429 76 429 15 431V402C66 402 85 400 106 373L223 220C225 218 229 212 229 209S151 108 141 95C97 41 53 30 10 29V0C48 2 50 2 93 2C131 2 133 2 183 0V29C159 32 155 47 155 61C155 77 162 85 172 98C187 119 220 160 244 191L326 84C343 62 343 60 343 54C343 46 335 30 308 29V0C334 2 383 2 411 2C444 2 446 2 506 0V29C453 29 435 31 411 63L280 236Z"
         id="glyph32" />
    </font>
    <font
       id="font53"
       horiz-adv-x="0">
      <font-face
         font-family="CMU Serif"
         units-per-em="1000"
         ascent="750"
         descent="250"
         id="font-face35" />
      <glyph
         unicode="."
         horiz-adv-x="295"
         vert-adv-y="295"
         glyph-name="period"
         d="M203 55C203 89 176 111 148 111C114 111 92 84 92 56C92 22 119 0 147 0C181 0 203 27 203 55Z"
         id="glyph37" />
      <glyph
         unicode="e"
         horiz-adv-x="472"
         vert-adv-y="472"
         glyph-name="e"
         d="M413 228C435 228 441 228 441 251C441 340 392 446 251 446C127 446 30 343 30 219C30 90 138-10 264-10C391-10 441 97 441 120C441 124 438 134 425 134C414 134 412 127 410 121C374 24 288 21 270 21C225 21 179 42 149 88S119 198 119 228H413ZM120 254C129 394 214 418 251 418C368 418 372 277 373 254H120Z"
         id="glyph39" />
      <glyph
         unicode="g"
         horiz-adv-x="531"
         vert-adv-y="531"
         glyph-name="g"
         d="M173 69C142 72 117 99 117 135C117 159 123 168 130 177C172 152 211 147 235 147C334 147 407 216 407 294C407 332 390 364 366 390C380 402 413 423 462 424C458 421 453 416 453 400C453 382 466 369 484 369C498 369 515 378 515 401C515 418 502 452 458 452C441 452 393 448 347 406C322 424 283 441 236 441C137 441 64 372 64 294C64 247 90 212 111 192C89 167 81 135 81 111C81 70 101 39 123 22C71 8 30-31 30-77C30-149 133-205 265-205C390-205 500-154 500-75C500-21 468 21 435 38C376 69 327 69 229 69H173ZM236 176C143 176 143 272 143 294C143 331 148 357 163 377C180 400 208 412 235 412C328 412 328 316 328 294C328 257 323 231 308 211C286 183 254 176 236 176ZM283 4C310 4 441 4 441-76C441-130 364-176 265-176C165-176 89-130 89-76C89-55 105 4 187 4H283Z"
         id="glyph41" />
      <glyph
         unicode="h"
         horiz-adv-x="590"
         vert-adv-y="590"
         glyph-name="h"
         d="M486 303C486 387 448 441 343 441C255 441 209 385 191 353H190V694L41 683V650C109 650 117 643 117 594V78C117 33 105 33 41 33V0C84 3 128 3 155 3C184 3 226 3 269 0V33C205 33 193 33 193 78V259C193 364 273 413 334 413S410 370 410 307V78C410 33 398 33 334 33V0C377 3 421 3 448 3C477 3 519 3 562 0V33C498 33 486 33 486 78V303Z"
         id="glyph43" />
      <glyph
         unicode="i"
         horiz-adv-x="295"
         vert-adv-y="295"
         glyph-name="i"
         d="M195 616C195 645 172 672 139 672C110 672 84 649 84 617C84 582 113 561 139 561C174 561 195 590 195 616ZM45 430V397C109 397 118 391 118 342V78C118 33 106 33 42 33V0C81 3 137 3 152 3C165 3 225 3 260 0V33C195 33 191 38 191 77V441L45 430Z"
         id="glyph45" />
      <glyph
         unicode="l"
         horiz-adv-x="295"
         vert-adv-y="295"
         glyph-name="l"
         d="M191 694L42 683V650C110 650 118 643 118 594V78C118 33 106 33 42 33V0C81 3 137 3 154 3C174 3 228 3 267 0V33C203 33 191 33 191 78V694Z"
         id="glyph47" />
      <glyph
         unicode="t"
         horiz-adv-x="413"
         vert-adv-y="413"
         glyph-name="t"
         d="M186 398H335V431H186V615H155C154 524 113 429 20 426V398H110V125C110 8 200-10 246-10C313-10 353 50 353 125V181H322V127C322 58 291 21 253 21C186 21 186 107 186 123V398Z"
         id="glyph49" />
      <glyph
         unicode="w"
         horiz-adv-x="767"
         vert-adv-y="767"
         glyph-name="w"
         d="M660 330C669 353 686 397 745 398V431C712 428 710 428 667 428C635 428 608 428 576 431V398C620 396 631 370 631 352C631 340 628 334 626 327L531 78L428 351C423 364 423 367 423 371C423 397 455 398 479 398V431C440 428 387 428 377 428C355 428 314 428 284 431V398C345 398 347 393 366 340L274 93L175 352C174 356 170 367 170 371C170 398 208 398 226 398V431C183 428 138 428 119 428C101 428 50 428 21 431V398C71 398 81 394 92 366L226 14C232-1 235-10 251-10C268-10 272 1 277 14L383 295L489 14C494 1 498-10 515-10C531-10 535 0 539 11L660 330Z"
         id="glyph51" />
    </font>
    <font
       id="font59"
       horiz-adv-x="0">
      <font-face
         font-family="CMU Serif"
         units-per-em="1000"
         ascent="775"
         descent="960"
         id="font-face55" />
      <glyph
         unicode="·"
         horiz-adv-x="277"
         vert-adv-y="277"
         glyph-name="periodcentered"
         d="M192 250C192 279 168 303 139 303S86 279 86 250S110 197 139 197S192 221 192 250Z"
         id="glyph57" />
    </font>
</defs>
</svg>
